<?xml version="1.0" encoding="iso-8859-1"?>
<!-- Generator: Adobe Illustrator 16.0.4, SVG Export Plug-In . SVG Version: 6.00 Build 0)  -->
<!DOCTYPE svg PUBLIC "-//W3C//DTD SVG 1.1//EN" "http://www.w3.org/Graphics/SVG/1.1/DTD/svg11.dtd">
<svg version="1.1" id="Capa_1" xmlns="http://www.w3.org/2000/svg" xmlns:xlink="http://www.w3.org/1999/xlink" x="0px" y="0px"
	 width="9.724px" height="15px" viewBox="0 0 9.724 15" style="enable-background:new 0 0 9.724 15;" xml:space="preserve">
<path style="fill:#010002;" d="M4.166,11.46V7.948C2.866,7.635,1.914,7.161,1.307,6.527C0.701,5.892,0.397,5.122,0.397,4.217
	c0-0.918,0.343-1.688,1.029-2.311C2.113,1.283,3.025,0.924,4.166,0.83V0h1.442v0.83C6.661,0.935,7.5,1.238,8.122,1.739
	c0.624,0.5,1.021,1.169,1.194,2.007L6.8,4.023c-0.152-0.66-0.55-1.106-1.193-1.341V5.96c1.591,0.363,2.675,0.834,3.251,1.414
	c0.577,0.578,0.865,1.32,0.865,2.225c0,1.013-0.363,1.866-1.089,2.558c-0.725,0.694-1.735,1.118-3.027,1.274V15H4.166v-1.526
	c-1.147-0.118-2.078-0.479-2.794-1.083C0.656,11.787,0.199,10.936,0,9.835l2.594-0.236c0.106,0.447,0.305,0.834,0.598,1.158
	C3.483,11.082,3.808,11.316,4.166,11.46z M4.166,2.656C3.774,2.769,3.462,2.96,3.231,3.227C3,3.495,2.883,3.791,2.883,4.116
	c0,0.296,0.105,0.571,0.318,0.825c0.212,0.256,0.533,0.46,0.964,0.616V2.656z M5.607,11.578c0.497-0.077,0.901-0.272,1.212-0.582
	c0.312-0.312,0.467-0.675,0.467-1.095c0-0.373-0.131-0.698-0.392-0.969C6.633,8.662,6.204,8.453,5.607,8.31V11.578z"/>
<g>
</g>
<g>
</g>
<g>
</g>
<g>
</g>
<g>
</g>
<g>
</g>
<g>
</g>
<g>
</g>
<g>
</g>
<g>
</g>
<g>
</g>
<g>
</g>
<g>
</g>
<g>
</g>
<g>
</g>
</svg>
