<?xml version="1.0" encoding="utf-8"?>
<!-- Generator: Adobe Illustrator 16.0.0, SVG Export Plug-In . SVG Version: 6.00 Build 0)  -->
<!DOCTYPE svg PUBLIC "-//W3C//DTD SVG 1.1//EN" "http://www.w3.org/Graphics/SVG/1.1/DTD/svg11.dtd">
<svg version="1.1" id="Layer_1" xmlns="http://www.w3.org/2000/svg" xmlns:xlink="http://www.w3.org/1999/xlink" x="0px" y="0px"
	 width="100px" height="100px" viewBox="0 0 100 100" enable-background="new 0 0 100 100" xml:space="preserve">
<g>
	<path d="M50.517,40.379c-5.782,0-10.486,4.704-10.486,10.486s4.704,10.486,10.486,10.486s10.486-4.704,10.486-10.486
		S56.299,40.379,50.517,40.379z M50.517,57.852c-3.853,0-6.986-3.135-6.986-6.986s3.134-6.986,6.986-6.986s6.986,3.135,6.986,6.986
		S54.369,57.852,50.517,57.852z" style="fill:#8E8E8E" />
	<path d="M80.473,50.167c-0.482-0.713-12.004-17.482-29.956-17.482c-16.007,0-29.353,16.712-29.913,17.423
		c-0.271,0.344-0.287,0.824-0.039,1.185c0.496,0.725,12.356,17.754,28.832,17.754c0.388,0,0.777-0.01,1.17-0.029
		c18.057-0.901,29.424-17.034,29.899-17.721C80.7,50.957,80.703,50.509,80.473,50.167z M50.517,63.352
		c-6.885,0-12.486-5.602-12.486-12.486s5.602-12.486,12.486-12.486s12.486,5.602,12.486,12.486S57.401,63.352,50.517,63.352z" style="fill:#8E8E8E"/>
</g>
</svg>
