<?xml version="1.0" encoding="utf-8"?>
<!-- Generator: Adobe Illustrator 16.0.0, SVG Export Plug-In . SVG Version: 6.00 Build 0)  -->
<!DOCTYPE svg PUBLIC "-//W3C//DTD SVG 1.1//EN" "http://www.w3.org/Graphics/SVG/1.1/DTD/svg11.dtd">
<svg version="1.1" id="Layer_1" xmlns="http://www.w3.org/2000/svg" xmlns:xlink="http://www.w3.org/1999/xlink" x="0px" y="0px"
	 width="50px" height="50px" viewBox="0 0 50 50" enable-background="new 0 0 50 50" xml:space="preserve">
<g>
	<path d="M21.537,15.765h6.926l1.793-3.585c0.283-0.568-0.004-1.033-0.639-1.033h-9.234c-0.635,0-0.922,0.464-0.639,1.033
		L21.537,15.765z" style="fill:orange"/>
	<path d="M23.144,25.003c0,0.596,0.402,1.093,1.206,1.492v-2.749C23.546,23.89,23.144,24.31,23.144,25.003z" style="fill:orange"/>
	<path d="M25.616,29.427v2.627c0.827-0.127,1.24-0.541,1.24-1.24C26.856,30.248,26.443,29.786,25.616,29.427z" style="fill:orange"/>
	<path d="M31.906,18.074H18.094c-2.812,2.105-4.638,5.453-4.638,9.235c0,6.376,5.166,11.544,11.544,11.544
		s11.544-5.167,11.544-11.544C36.544,23.526,34.718,20.179,31.906,18.074z M28.245,33.013c-0.614,0.587-1.49,0.944-2.629,1.071
		v1.882H24.35v-1.83c-1.174-0.006-2.268-0.272-3.277-0.798v-2.403c0.334,0.271,0.835,0.523,1.5,0.754
		c0.664,0.231,1.256,0.364,1.777,0.399v-3.157c-1.353-0.503-2.277-1.048-2.771-1.635c-0.494-0.586-0.741-1.302-0.741-2.146
		c0-0.908,0.321-1.682,0.963-2.321c0.642-0.639,1.491-1.01,2.55-1.115v-1.613h1.267v1.579c1.221,0.057,2.13,0.254,2.731,0.59v2.342
		c-0.809-0.492-1.72-0.792-2.731-0.902v3.287c1.267,0.458,2.174,0.979,2.723,1.566c0.55,0.587,0.824,1.296,0.824,2.129
		C29.163,31.653,28.856,32.426,28.245,33.013z" style="fill:orange"/>
</g>
</svg>
