<?xml version="1.0" encoding="utf-8"?>
<!-- Generator: Adobe Illustrator 16.0.4, SVG Export Plug-In . SVG Version: 6.00 Build 0)  -->
<!DOCTYPE svg PUBLIC "-//W3C//DTD SVG 1.1//EN" "http://www.w3.org/Graphics/SVG/1.1/DTD/svg11.dtd">
<svg version="1.1" id="Layer_1" xmlns="http://www.w3.org/2000/svg" xmlns:xlink="http://www.w3.org/1999/xlink" x="0px" y="0px"
	 width="20px" height="24px" viewBox="0 0 20 24" enable-background="new 0 0 20 24" xml:space="preserve">
<path d="M16.762,6.653l1.346-1.346l-1.414-1.414l-1.549,1.548c-1.235-0.746-2.638-1.24-4.145-1.39V3H9v1.051
	C3.954,4.554,0,8.823,0,14c0,5.514,4.486,10,10,10c5.514,0,10-4.486,10-10C20,11.094,18.746,8.482,16.762,6.653z M10,22
	c-4.411,0-8-3.589-8-8s3.589-8,8-8s8,3.589,8,8S14.411,22,10,22z M12,14c0,1.104-0.896,2-2,2s-2-0.896-2-2
	c0-0.182,0.032-0.354,0.078-0.521L4.5,8.5l4.979,3.578C9.646,12.032,9.818,12,10,12C11.104,12,12,12.896,12,14z M13,2H7V0h6V2z"/>
</svg>
